<mxfile host="app.diagrams.net" modified="2022-06-29T17:51:15.692Z" agent="5.0 (Windows NT 10.0; Win64; x64) AppleWebKit/537.36 (KHTML, like Gecko) Chrome/103.0.0.0 Safari/537.36" etag="5KGLFHBZt0-q6LlCdbQj" version="20.0.3" type="github">
  <diagram id="wDoLL7g05n-yY2bqQ4mJ" name="Page-1">
    <mxGraphModel dx="1038" dy="489" grid="1" gridSize="10" guides="1" tooltips="1" connect="1" arrows="1" fold="1" page="1" pageScale="1" pageWidth="850" pageHeight="1100" math="0" shadow="0">
      <root>
        <mxCell id="0" />
        <mxCell id="1" parent="0" />
        <mxCell id="5J66G3rEuKC00A6MMou3-31" value="" style="swimlane;startSize=0;" parent="1" vertex="1">
          <mxGeometry x="210" y="220" width="540" height="530" as="geometry">
            <mxRectangle x="180" y="210" width="50" height="40" as="alternateBounds" />
          </mxGeometry>
        </mxCell>
        <mxCell id="5J66G3rEuKC00A6MMou3-50" value="&lt;font style=&quot;font-size: 15px;&quot;&gt;&lt;b&gt;Loan Calculator System&lt;/b&gt;&lt;/font&gt;" style="text;html=1;align=center;verticalAlign=middle;resizable=0;points=[];autosize=1;strokeColor=none;fillColor=none;" parent="5J66G3rEuKC00A6MMou3-31" vertex="1">
          <mxGeometry x="175" y="20" width="190" height="30" as="geometry" />
        </mxCell>
        <mxCell id="5J66G3rEuKC00A6MMou3-34" value="Enter interest rate" style="ellipse;whiteSpace=wrap;html=1;" parent="5J66G3rEuKC00A6MMou3-31" vertex="1">
          <mxGeometry x="350" y="240" width="160" height="50" as="geometry" />
        </mxCell>
        <mxCell id="5J66G3rEuKC00A6MMou3-32" value="Enter loan amount" style="ellipse;whiteSpace=wrap;html=1;" parent="5J66G3rEuKC00A6MMou3-31" vertex="1">
          <mxGeometry x="100" y="80" width="160" height="50" as="geometry" />
        </mxCell>
        <mxCell id="5J66G3rEuKC00A6MMou3-33" value="Enter loan term" style="ellipse;whiteSpace=wrap;html=1;" parent="5J66G3rEuKC00A6MMou3-31" vertex="1">
          <mxGeometry x="280" y="150" width="160" height="50" as="geometry" />
        </mxCell>
        <mxCell id="5J66G3rEuKC00A6MMou3-35" value="Enter down payment" style="ellipse;whiteSpace=wrap;html=1;" parent="5J66G3rEuKC00A6MMou3-31" vertex="1">
          <mxGeometry x="290" y="330" width="160" height="50" as="geometry" />
        </mxCell>
        <mxCell id="5J66G3rEuKC00A6MMou3-38" value="Calculate monthly payment, total interest amount and percentage of interest amount" style="ellipse;whiteSpace=wrap;html=1;" parent="5J66G3rEuKC00A6MMou3-31" vertex="1">
          <mxGeometry x="240" y="420" width="260" height="70" as="geometry" />
        </mxCell>
        <mxCell id="5J66G3rEuKC00A6MMou3-39" style="rounded=0;orthogonalLoop=1;jettySize=auto;html=1;entryX=0.5;entryY=1;entryDx=0;entryDy=0;dashed=1;exitX=0.5;exitY=0;exitDx=0;exitDy=0;" parent="5J66G3rEuKC00A6MMou3-31" source="5J66G3rEuKC00A6MMou3-47" target="5J66G3rEuKC00A6MMou3-32" edge="1">
          <mxGeometry relative="1" as="geometry" />
        </mxCell>
        <mxCell id="5J66G3rEuKC00A6MMou3-40" value="&amp;lt;&amp;lt;include&amp;gt;&amp;gt;" style="edgeLabel;html=1;align=center;verticalAlign=middle;resizable=0;points=[];" parent="5J66G3rEuKC00A6MMou3-39" vertex="1" connectable="0">
          <mxGeometry x="0.2576" y="-2" relative="1" as="geometry">
            <mxPoint as="offset" />
          </mxGeometry>
        </mxCell>
        <mxCell id="5J66G3rEuKC00A6MMou3-41" style="rounded=0;orthogonalLoop=1;jettySize=auto;html=1;dashed=1;entryX=0;entryY=0.5;entryDx=0;entryDy=0;" parent="5J66G3rEuKC00A6MMou3-31" source="5J66G3rEuKC00A6MMou3-47" target="5J66G3rEuKC00A6MMou3-33" edge="1">
          <mxGeometry relative="1" as="geometry">
            <Array as="points" />
          </mxGeometry>
        </mxCell>
        <mxCell id="5J66G3rEuKC00A6MMou3-42" value="&amp;lt;&amp;lt;include&amp;gt;&amp;gt;" style="edgeLabel;html=1;align=center;verticalAlign=middle;resizable=0;points=[];" parent="5J66G3rEuKC00A6MMou3-41" vertex="1" connectable="0">
          <mxGeometry x="-0.2303" y="-1" relative="1" as="geometry">
            <mxPoint y="1" as="offset" />
          </mxGeometry>
        </mxCell>
        <mxCell id="5J66G3rEuKC00A6MMou3-43" style="rounded=0;orthogonalLoop=1;jettySize=auto;html=1;exitX=1;exitY=0.5;exitDx=0;exitDy=0;dashed=1;" parent="5J66G3rEuKC00A6MMou3-31" source="5J66G3rEuKC00A6MMou3-47" target="5J66G3rEuKC00A6MMou3-34" edge="1">
          <mxGeometry relative="1" as="geometry" />
        </mxCell>
        <mxCell id="5J66G3rEuKC00A6MMou3-44" value="&amp;lt;&amp;lt;include&amp;gt;&amp;gt;" style="edgeLabel;html=1;align=center;verticalAlign=middle;resizable=0;points=[];" parent="5J66G3rEuKC00A6MMou3-43" vertex="1" connectable="0">
          <mxGeometry x="-0.304" relative="1" as="geometry">
            <mxPoint as="offset" />
          </mxGeometry>
        </mxCell>
        <mxCell id="5J66G3rEuKC00A6MMou3-45" style="rounded=0;orthogonalLoop=1;jettySize=auto;html=1;exitX=0.753;exitY=0.996;exitDx=0;exitDy=0;entryX=0;entryY=0.5;entryDx=0;entryDy=0;dashed=1;exitPerimeter=0;" parent="5J66G3rEuKC00A6MMou3-31" source="5J66G3rEuKC00A6MMou3-47" target="5J66G3rEuKC00A6MMou3-35" edge="1">
          <mxGeometry relative="1" as="geometry" />
        </mxCell>
        <mxCell id="5J66G3rEuKC00A6MMou3-46" value="&amp;lt;&amp;lt;include&amp;gt;&amp;gt;" style="edgeLabel;html=1;align=center;verticalAlign=middle;resizable=0;points=[];" parent="5J66G3rEuKC00A6MMou3-45" vertex="1" connectable="0">
          <mxGeometry x="-0.3096" y="1" relative="1" as="geometry">
            <mxPoint as="offset" />
          </mxGeometry>
        </mxCell>
        <mxCell id="5J66G3rEuKC00A6MMou3-47" value="Calculate loan information" style="ellipse;whiteSpace=wrap;html=1;" parent="5J66G3rEuKC00A6MMou3-31" vertex="1">
          <mxGeometry x="60" y="240" width="170" height="50" as="geometry" />
        </mxCell>
        <mxCell id="5J66G3rEuKC00A6MMou3-36" style="edgeStyle=none;rounded=0;orthogonalLoop=1;jettySize=auto;html=1;exitX=0;exitY=0.5;exitDx=0;exitDy=0;entryX=0.5;entryY=1;entryDx=0;entryDy=0;dashed=1;" parent="5J66G3rEuKC00A6MMou3-31" source="5J66G3rEuKC00A6MMou3-38" target="5J66G3rEuKC00A6MMou3-47" edge="1">
          <mxGeometry relative="1" as="geometry" />
        </mxCell>
        <mxCell id="5J66G3rEuKC00A6MMou3-37" value="&amp;lt;&amp;lt;extend&amp;gt;&amp;gt;" style="edgeLabel;html=1;align=center;verticalAlign=middle;resizable=0;points=[];" parent="5J66G3rEuKC00A6MMou3-36" vertex="1" connectable="0">
          <mxGeometry x="0.1848" y="4" relative="1" as="geometry">
            <mxPoint as="offset" />
          </mxGeometry>
        </mxCell>
        <mxCell id="5J66G3rEuKC00A6MMou3-49" value="User" style="shape=umlActor;verticalLabelPosition=bottom;verticalAlign=top;html=1;outlineConnect=0;" parent="1" vertex="1">
          <mxGeometry x="100" y="445" width="40" height="80" as="geometry" />
        </mxCell>
        <mxCell id="5J66G3rEuKC00A6MMou3-48" style="edgeStyle=none;rounded=0;orthogonalLoop=1;jettySize=auto;html=1;endArrow=none;endFill=0;" parent="1" source="5J66G3rEuKC00A6MMou3-49" target="5J66G3rEuKC00A6MMou3-47" edge="1">
          <mxGeometry relative="1" as="geometry" />
        </mxCell>
        <mxCell id="5J66G3rEuKC00A6MMou3-53" style="edgeStyle=none;rounded=0;orthogonalLoop=1;jettySize=auto;html=1;exitX=0.5;exitY=0.5;exitDx=0;exitDy=0;exitPerimeter=0;fontSize=15;endArrow=none;endFill=0;" parent="1" source="5J66G3rEuKC00A6MMou3-49" target="5J66G3rEuKC00A6MMou3-49" edge="1">
          <mxGeometry relative="1" as="geometry" />
        </mxCell>
      </root>
    </mxGraphModel>
  </diagram>
</mxfile>
